<?xml version="1.0" encoding="iso-8859-1"?>
<!-- Generator: Adobe Illustrator 19.0.0, SVG Export Plug-In . SVG Version: 6.00 Build 0)  -->
<svg version="1.1" id="Layer_1" xmlns="http://www.w3.org/2000/svg" xmlns:xlink="http://www.w3.org/1999/xlink" x="0px" y="0px"
	 viewBox="0 0 512.001 512.001" style="enable-background:new 0 0 512.001 512.001;" xml:space="preserve">
<g>
	<g>
		<path d="M281.12,353.354V42.221C281.12,18.941,262.18,0,238.899,0c-23.282,0-42.221,18.941-42.221,42.221v311.133
			c-26.391,15.093-42.646,42.761-42.756,73.36c-0.078,21.959,8.481,42.96,24.097,59.132c15.624,16.179,36.315,25.453,58.26,26.115
			c0.886,0.026,1.767,0.04,2.649,0.04c22.227-0.001,43.14-8.461,59.142-23.987c16.642-16.149,25.806-37.809,25.806-60.992
			C323.875,396.291,307.619,368.505,281.12,353.354z M286.905,476.506c-13.496,13.095-31.316,20.003-50.142,19.427
			c-17.741-0.534-34.507-8.072-47.21-21.226c-12.701-13.152-19.661-30.176-19.597-47.937c0.093-26.181,14.773-49.723,38.31-61.438
			c2.724-1.355,4.444-4.136,4.444-7.177V42.221c0-14.44,11.748-26.188,26.188-26.188c14.44,0,26.188,11.748,26.188,26.188v315.935
			c0,3.042,1.721,5.821,4.444,7.177c23.632,11.762,38.311,35.4,38.311,61.689C307.842,445.831,300.407,463.405,286.905,476.506z"/>
	</g>
</g>
<g>
	<g>
		<path d="M246.915,376.889V93.528c0-4.427-3.589-8.017-8.017-8.017c-4.427,0-8.017,3.589-8.017,8.017v283.361
			c-24.2,3.855-42.756,24.866-42.756,50.133c0,27.995,22.777,50.772,50.772,50.772c27.995,0,50.772-22.777,50.772-50.772
			C289.671,401.755,271.115,380.744,246.915,376.889z M238.899,461.761c-19.155,0-34.739-15.584-34.739-34.739
			c0-19.155,15.584-34.739,34.739-34.739s34.739,15.584,34.739,34.739C273.638,446.177,258.054,461.761,238.899,461.761z"/>
	</g>
</g>
<g>
	<g>
		<path d="M350.063,256.534h-42.756c-4.427,0-8.017,3.589-8.017,8.017s3.589,8.017,8.017,8.017h42.756
			c4.427,0,8.017-3.589,8.017-8.017S354.492,256.534,350.063,256.534z"/>
	</g>
</g>
<g>
	<g>
		<path d="M332.961,213.778h-25.653c-4.427,0-8.017,3.589-8.017,8.017c0,4.427,3.589,8.017,8.017,8.017h25.653
			c4.427,0,8.017-3.589,8.017-8.017C340.978,217.368,337.388,213.778,332.961,213.778z"/>
	</g>
</g>
<g>
	<g>
		<path d="M350.063,171.023h-42.756c-4.427,0-8.017,3.589-8.017,8.017c0,4.427,3.589,8.017,8.017,8.017h42.756
			c4.427,0,8.017-3.589,8.017-8.017C358.08,174.612,354.492,171.023,350.063,171.023z"/>
	</g>
</g>
<g>
	<g>
		<path d="M332.961,128.267h-25.653c-4.427,0-8.017,3.589-8.017,8.017c0,4.427,3.589,8.017,8.017,8.017h25.653
			c4.427,0,8.017-3.589,8.017-8.017C340.978,131.856,337.388,128.267,332.961,128.267z"/>
	</g>
</g>
<g>
	<g>
		<path d="M350.063,85.511h-42.756c-4.427,0-8.017,3.589-8.017,8.017c0,4.427,3.589,8.017,8.017,8.017h42.756
			c4.427,0,8.017-3.589,8.017-8.017C358.08,89.101,354.491,85.511,350.063,85.511z"/>
	</g>
</g>
<g>
</g>
<g>
</g>
<g>
</g>
<g>
</g>
<g>
</g>
<g>
</g>
<g>
</g>
<g>
</g>
<g>
</g>
<g>
</g>
<g>
</g>
<g>
</g>
<g>
</g>
<g>
</g>
<g>
</g>
</svg>
